<svg xmlns="http://www.w3.org/2000/svg" width="900" height="850" viewBox="0 0 900 850"><defs><linearGradient id="bg" x2="0" y2="1"><stop stop-color="#ded7bb"/><stop offset="1" stop-color="#f1dcc1"/></linearGradient><filter id="grain"><feTurbulence type="fractalNoise" baseFrequency=".65" numOctaves="3" stitchTiles="stitch"/><feColorMatrix type="saturate" values="0"/><feComponentTransfer><feFuncA type="linear" slope=".11"/></feComponentTransfer><feBlend in="SourceGraphic" mode="multiply"/></filter><linearGradient id="green" x2="1" y2="1"><stop stop-color="#6c877c"/><stop offset="1" stop-color="#294c43"/></linearGradient></defs><g filter="url(#grain)"><rect width="900" height="850" fill="url(#bg)"/><circle cx="658" cy="215" r="94" fill="#d56e45"/><path d="M0 252C167 98 258 159 360 262S603 400 900 273V850H0Z" fill="#a4af95"/><path d="M0 463C157 290 243 323 392 433S713 530 900 366V850H0Z" fill="url(#green)"/><path d="M-50 796C65 586 164 579 282 614S451 728 542 611 582 400 731 376 812 419 940 385" fill="none" stroke="#ded6b5" stroke-width="100"/><path d="M-100 828C65 670 177 729 325 777S629 696 705 579 833 510 930 551V900H-100Z" fill="#c89468"/><path d="M0 788C78 701 158 720 219 787L277 900H0Z" fill="#3b5848"/><path d="M744 850C752 734 816 642 900 633V850Z" fill="#798977"/></g></svg>
